<svg width="82" height="83" viewBox="0 0 82 83" fill="none" xmlns="http://www.w3.org/2000/svg">
<path d="M41.0007 24.4167C37.4152 24.4167 33.9206 25.5448 31.0119 27.6413C28.1031 29.7378 25.9278 32.6963 24.794 36.0978C23.6601 39.4993 23.6253 43.1713 24.6944 46.5937C25.7635 50.0161 27.8823 53.0154 30.7507 55.1667V68.8334C30.7507 70.6457 31.4706 72.3838 32.7521 73.6653C34.0336 74.9468 35.7717 75.6667 37.584 75.6667H44.4173C46.2296 75.6667 47.9677 74.9468 49.2492 73.6653C50.5307 72.3838 51.2507 70.6457 51.2507 68.8334V55.1667C54.119 53.0154 56.2378 50.0161 57.3069 46.5937C58.376 43.1713 58.3412 39.4993 57.2073 36.0978C56.0735 32.6963 53.8982 29.7378 50.9895 27.6413C48.0807 25.5448 44.5861 24.4167 41.0007 24.4167ZM41.0007 21C41.9068 21 42.7758 20.6401 43.4166 19.9993C44.0574 19.3586 44.4173 18.4895 44.4173 17.5834V10.75C44.4173 9.84388 44.0574 8.97484 43.4166 8.33409C42.7758 7.69334 41.9068 7.33337 41.0007 7.33337C40.0945 7.33337 39.2255 7.69334 38.5847 8.33409C37.944 8.97484 37.584 9.84388 37.584 10.75V17.5834C37.584 18.4895 37.944 19.3586 38.5847 19.9993C39.2255 20.6401 40.0945 21 41.0007 21ZM71.7507 38.0834H64.9173C64.0112 38.0834 63.1421 38.4433 62.5014 39.0841C61.8606 39.7248 61.5007 40.5939 61.5007 41.5C61.5007 42.4062 61.8606 43.2752 62.5014 43.916C63.1421 44.5567 64.0112 44.9167 64.9173 44.9167H71.7507C72.6568 44.9167 73.5259 44.5567 74.1666 43.916C74.8074 43.2752 75.1673 42.4062 75.1673 41.5C75.1673 40.5939 74.8074 39.7248 74.1666 39.0841C73.5259 38.4433 72.6568 38.0834 71.7507 38.0834ZM17.084 38.0834H10.2507C9.34449 38.0834 8.47545 38.4433 7.8347 39.0841C7.19395 39.7248 6.83398 40.5939 6.83398 41.5C6.83398 42.4062 7.19395 43.2752 7.8347 43.916C8.47545 44.5567 9.34449 44.9167 10.2507 44.9167H17.084C17.9901 44.9167 18.8592 44.5567 19.4999 43.916C20.1407 43.2752 20.5007 42.4062 20.5007 41.5C20.5007 40.5939 20.1407 39.7248 19.4999 39.0841C18.8592 38.4433 17.9901 38.0834 17.084 38.0834ZM26.1723 22.435L21.2523 17.5834C20.5863 16.9536 19.6974 16.6142 18.7811 16.6398C17.8648 16.6654 16.9963 17.054 16.3665 17.72C15.7367 18.3861 15.3973 19.275 15.4229 20.1913C15.4486 21.1075 15.8371 21.9761 16.5032 22.6059L21.4232 27.355C21.7533 27.6739 22.1443 27.9229 22.5729 28.0872C23.0014 28.2516 23.4586 28.3279 23.9173 28.3117C24.3776 28.31 24.8327 28.2152 25.2554 28.0332C25.6782 27.8512 26.0598 27.5857 26.3773 27.2525C26.9872 26.5857 27.308 25.7043 27.2696 24.8015C27.2312 23.8986 26.8366 23.0477 26.1723 22.435ZM65.5665 17.7542C64.9263 17.1179 64.0604 16.7607 63.1577 16.7607C62.2551 16.7607 61.3891 17.1179 60.749 17.7542L55.829 22.435C55.1926 23.0752 54.8354 23.9412 54.8354 24.8438C54.8354 25.7464 55.1926 26.6124 55.829 27.2525C56.1466 27.5857 56.5281 27.8512 56.9509 28.0332C57.3736 28.2152 57.8287 28.31 58.289 28.3117C59.1687 28.3082 60.0131 27.9655 60.6465 27.355L65.5665 22.6059C65.8867 22.2882 66.1409 21.9104 66.3144 21.494C66.4878 21.0777 66.5771 20.6311 66.5771 20.18C66.5771 19.729 66.4878 19.2824 66.3144 18.8661C66.1409 18.4497 65.8867 18.0718 65.5665 17.7542Z" fill="#C774F0"/>
</svg>
