<svg width="83" height="83" viewBox="0 0 83 83" fill="none" xmlns="http://www.w3.org/2000/svg">
<g clip-path="url(#clip0_129_365)">
<path d="M51.916 5.625H82.666V82.5H0.666016V1.98145L51.916 53.2314V5.625ZM5.79102 77.375H68.7725L5.79102 14.3936V77.375ZM70.9346 72.25L76.0596 77.375H77.541V10.75H57.041V15.875H67.291V21H57.041V26.125H67.291V31.25H57.041V36.375H72.416V41.5H57.041V46.625H67.291V51.75H57.041V56.875H67.291V62H60.6846L65.8096 67.125H72.416V72.25H70.9346ZM16.041 42.9814L40.1846 67.125H16.041V42.9814ZM21.166 55.3936V62H27.7725L21.166 55.3936Z" fill="#C774F0"/>
</g>
<defs>
<clipPath id="clip0_129_365">
<rect width="82" height="82" fill="white" transform="translate(0.666016 0.5)"/>
</clipPath>
</defs>
</svg>
