<svg width="61" height="61" viewBox="0 0 61 61" fill="none" xmlns="http://www.w3.org/2000/svg">
<path d="M55.6177 27.5842L50.9951 22.964C50.8206 22.7896 50.5848 22.6904 50.3381 22.6875H40.488L32.9255 30.25L40.488 37.8125H50.3381C50.5881 37.8121 50.8277 37.7127 51.0046 37.536L55.6271 32.9158C56.3301 32.2061 56.7237 31.247 56.722 30.2481C56.7202 29.2491 56.3232 28.2914 55.6177 27.5842ZM15.846 41.5938H20.7971C21.2979 41.5935 21.7781 41.3947 22.1324 41.0408L30.2502 32.9252L38.3681 41.0408C38.7224 41.3947 39.2026 41.5935 39.7033 41.5938H44.6662C44.8533 41.5936 45.0362 41.649 45.1918 41.7528C45.3474 41.8567 45.4687 42.0044 45.5403 42.1772C45.6119 42.35 45.6306 42.5402 45.5941 42.7237C45.5576 42.9072 45.4674 43.0757 45.335 43.2079L32.9278 55.6175C32.2194 56.3217 31.261 56.717 30.262 56.717C29.2631 56.717 28.3047 56.3217 27.5963 55.6175L15.1772 43.2079C15.0449 43.0757 14.9547 42.9072 14.9182 42.7237C14.8816 42.5402 14.9004 42.35 14.972 42.1772C15.0436 42.0044 15.1649 41.8567 15.3204 41.7528C15.476 41.649 15.659 41.5936 15.846 41.5938ZM44.6662 18.9063H39.7033C39.2026 18.9065 38.7224 19.1054 38.3681 19.4593L30.2502 27.5771L22.1324 19.4593C21.7781 19.1054 21.2979 18.9065 20.7971 18.9063H15.8342C15.6471 18.9064 15.4642 18.851 15.3086 18.7472C15.153 18.6433 15.0318 18.4956 14.9602 18.3228C14.8885 18.15 14.8698 17.9598 14.9064 17.7763C14.9429 17.5929 15.033 17.4243 15.1654 17.2921L27.5726 4.88255C28.2811 4.1783 29.2395 3.783 30.2384 3.783C31.2374 3.783 32.1957 4.1783 32.9042 4.88255L45.3114 17.2921C45.4424 17.4229 45.5322 17.5893 45.5695 17.7706C45.6068 17.9519 45.5901 18.1402 45.5214 18.3121C45.4527 18.484 45.335 18.6319 45.183 18.7375C45.031 18.8432 44.8513 18.9018 44.6662 18.9063ZM27.5892 30.25L20.0267 37.8125H10.1623C9.91236 37.8121 9.67274 37.7127 9.49589 37.536L4.88276 32.9158C4.1785 32.2073 3.7832 31.249 3.7832 30.25C3.7832 29.2511 4.1785 28.2927 4.88276 27.5842L9.50534 22.964C9.67987 22.7896 9.91565 22.6904 10.1623 22.6875H20.0125L27.5892 30.25Z" fill="#C774F0"/>
</svg>
