<svg width="83" height="83" viewBox="0 0 83 83" fill="none" xmlns="http://www.w3.org/2000/svg">
<path d="M74.6962 30.6197L21.8985 24.7772L18.68 12.5822C18.5681 12.1732 18.3254 11.812 17.9891 11.5539C17.6527 11.2957 17.2411 11.1547 16.817 11.1524H8.89122C8.60476 10.7667 8.2329 10.4527 7.80477 10.2349C7.37664 10.017 6.90388 9.90129 6.42353 9.89673C5.57979 9.89673 4.7706 10.2319 4.17398 10.8285C3.57736 11.4251 3.24219 12.2343 3.24219 13.0781C3.24219 13.9218 3.57736 14.731 4.17398 15.3276C4.7706 15.9242 5.57979 16.2594 6.42353 16.2594C7.44853 16.2594 8.31466 15.7469 8.89634 14.9987H15.3333L28.7352 65.7362C27.2733 67.2923 26.458 69.3462 26.4546 71.4813C26.4536 72.5895 26.6711 73.687 27.0946 74.7111C27.5182 75.7352 28.1395 76.6657 28.923 77.4494C29.7065 78.2332 30.6368 78.8547 31.6607 79.2786C32.6847 79.7025 33.7821 79.9203 34.8903 79.9196C37.1295 79.9203 39.2772 79.0318 40.8615 77.4494C42.4458 75.8671 43.3369 73.7204 43.3389 71.4813C43.3345 70.8395 43.2545 70.2004 43.1006 69.5774H57.2789C57.1272 70.2008 57.0481 70.8397 57.0432 71.4813C57.0432 76.145 60.8254 79.9196 65.4892 79.9196C70.1529 79.9196 73.9275 76.145 73.9275 71.4813C73.9281 69.2417 73.0393 67.0936 71.4564 65.5092C69.8735 63.9249 67.7262 63.0341 65.4866 63.0327C63.0522 63.0327 60.8741 64.0834 59.3315 65.731H41.0455C40.2607 64.8816 39.3089 64.2034 38.2497 63.7391C37.1905 63.2747 36.0468 63.0343 34.8903 63.0327C33.9166 63.0327 32.9992 63.2326 32.1305 63.535L31.6642 61.7771H69.0331C70.4692 61.7477 71.8538 61.2366 72.9645 60.3257C74.0752 59.4149 74.8475 58.1572 75.1575 56.7546L79.1934 36.7722C79.2615 36.4227 79.2958 36.0674 79.2959 35.7114C79.2978 34.4429 78.8281 33.219 77.9781 32.2776C77.128 31.3361 75.9583 30.7468 74.6962 30.6197ZM65.4917 72.2347C65.291 72.234 65.0985 72.1543 64.9561 72.0128C64.8137 71.8714 64.7327 71.6795 64.7307 71.4787C64.7383 71.0534 65.0766 70.7151 65.4943 70.7151C65.912 70.7151 66.2502 71.0534 66.2553 71.4762C66.2527 71.6765 66.1714 71.8677 66.029 72.0086C65.8866 72.1495 65.6946 72.2289 65.4943 72.2295L65.4917 72.2347ZM70.053 53.0287L72.4822 50.5944L71.6673 54.6431L70.053 53.0287ZM33.0172 29.8714L35.6693 32.5313L32.3637 35.8369L29.0504 32.5313L31.8358 29.7433L33.0172 29.8714ZM44.5433 31.1475L45.9219 32.5313L42.6163 35.8369L39.303 32.5313L41.066 30.7632L44.5433 31.1475ZM25.0093 36.5698L27.2387 34.3455L30.5443 37.6563L27.2387 40.9619L25.7909 39.5192L25.0119 36.5672L25.0093 36.5698ZM24.2534 33.6998L23.4129 30.5223L25.4245 32.5339L24.2534 33.6998ZM56.1693 42.7813L52.8637 46.0869L49.5504 42.7813L52.8612 39.468L56.1693 42.7813ZM54.6754 37.6563L57.9862 34.3455L61.2918 37.6563L57.9862 40.967L54.6754 37.6563ZM47.7387 40.9619L44.4254 37.6563L47.7362 34.343L51.0418 37.6537L47.7387 40.9619ZM45.9193 42.7813L42.6137 46.0869L39.303 42.7813L42.6137 39.468L45.9193 42.7813ZM37.4887 40.9619L34.1754 37.6563L37.4862 34.343L40.7918 37.6537L37.4887 40.9619ZM35.6693 42.7813L32.3637 46.0869L29.0504 42.7813L32.3612 39.468L35.6693 42.7813ZM27.2387 44.593L30.5443 47.9037L28.5353 49.9102L27.1516 44.6724L27.2362 44.5879L27.2387 44.593ZM29.2938 52.7853L32.3612 49.718L35.6668 53.0287L32.3612 56.3344L29.4655 53.4387L29.2938 52.7853ZM34.178 47.9037L37.4836 44.5904L40.7969 47.9012L37.4913 51.2068L34.1805 47.9012L34.178 47.9037ZM42.6137 49.7154L45.9245 53.0262L42.6137 56.3318L39.303 53.0262L42.6137 49.7154ZM44.428 47.9012L47.7387 44.5879L51.0443 47.8986L47.7387 51.2042L44.428 47.9012ZM52.8586 49.7129L56.1719 53.0236L52.8663 56.3292L49.5555 53.0185L52.8586 49.7129ZM54.678 47.8986L57.9836 44.5853L61.2969 47.896L57.9913 51.2017L54.678 47.8986ZM59.803 42.7736L63.1086 39.4603L66.4219 42.771L63.1163 46.0767L59.803 42.7736ZM64.928 37.6486L68.2336 34.3353L71.5443 37.6563L68.2387 40.967L64.9254 37.6537L64.928 37.6486ZM63.1086 35.8344L60.1489 32.8721L65.484 33.4615L63.1086 35.8344ZM56.1745 32.5313L52.8688 35.842L49.5555 32.5313L50.2987 31.7882L56.072 32.4288L56.1745 32.5313ZM37.4938 30.7119L37.1043 30.3275L37.8039 30.4044L37.4964 30.7119H37.4938ZM27.2438 30.717L25.5782 29.0514L28.5763 29.3845L27.2438 30.717ZM37.4938 54.843L40.5817 57.9308H34.406L37.4938 54.843ZM47.7438 54.843L50.8317 57.9334H44.6509L47.7438 54.843ZM57.9938 54.843L61.0868 57.9359H54.9009L57.9938 54.843ZM59.8055 53.0287L63.1163 49.7154L66.4219 53.0262L63.1163 56.3318L59.8055 53.0287ZM64.9305 47.9037L68.2413 44.593L71.5469 47.8986L68.2413 51.2119L64.928 47.9063L64.9305 47.9037ZM73.3663 46.0844L70.0555 42.7787L73.3612 39.468L74.5015 40.6057L73.3996 46.0485L73.3637 46.0869L73.3663 46.0844ZM74.6475 34.5531L73.3663 35.8344L71.675 34.1508L74.2811 34.4378C74.4195 34.4583 74.5373 34.5044 74.6501 34.5505L74.6475 34.5531ZM34.8955 72.2321C34.7016 72.2208 34.5194 72.1359 34.3861 71.9946C34.2528 71.8534 34.1785 71.6665 34.1785 71.4723C34.1785 71.2781 34.2528 71.0913 34.3861 70.95C34.5194 70.8088 34.7016 70.7238 34.8955 70.7125C35.0887 70.7238 35.2703 70.8085 35.4031 70.9492C35.5359 71.09 35.6099 71.2762 35.6099 71.4698C35.6099 71.6633 35.5359 71.8495 35.4031 71.9903C35.2703 72.1311 35.0887 72.2157 34.8955 72.227V72.2321ZM69.0357 57.9334H65.1483L68.2413 54.8404L70.6244 57.2235C70.1452 57.6592 69.5405 57.9667 69.0357 57.9334Z" fill="#C774F0"/>
</svg>
