<svg width="34" height="37" viewBox="0 0 34 37" fill="none" xmlns="http://www.w3.org/2000/svg">
<path opacity="0.2" d="M17 18.158C17 20.5449 17.9482 22.8341 19.636 24.5219C21.3239 26.2097 23.6131 27.158 26 27.158C27.9256 27.2348 29.3563 26.7361 30.8525 25.7761C30.9657 25.7053 31.0958 25.6661 31.2293 25.6624C31.3628 25.6587 31.4948 25.6907 31.6118 25.7551C31.7287 25.8195 31.8264 25.914 31.8947 26.0287C31.9629 26.1435 31.9993 26.2744 32 26.408V33.158C32 33.5558 31.842 33.9373 31.5607 34.2186C31.2794 34.4999 30.8978 34.658 30.5 34.658H3.5C3.10218 34.658 2.72064 34.4999 2.43934 34.2186C2.15804 33.9373 2 33.5558 2 33.158V3.15796C2 2.76013 2.15804 2.3786 2.43934 2.0973C2.72064 1.81599 3.10218 1.65796 3.5 1.65796H30.5C30.8978 1.65796 31.2794 1.81599 31.5607 2.0973C31.842 2.3786 32 2.76013 32 3.15796V9.90796C31.9996 10.0422 31.9631 10.1739 31.8944 10.2892C31.8258 10.4045 31.7274 10.4993 31.6096 10.5637C31.4918 10.628 31.3589 10.6596 31.2247 10.6551C31.0906 10.6506 30.9601 10.6101 30.8469 10.538C29.4812 9.68238 27.9117 9.20721 26.3008 9.16163C24.6898 9.11604 23.096 9.50168 21.6841 10.2787C20.2722 11.0556 19.0935 12.1957 18.27 13.581C17.4465 14.9663 17.008 16.5464 17 18.158Z" fill="#C774F0"/>
<path d="M26 10.658C27.4273 10.6452 28.8284 11.0421 30.0369 11.8017C30.3768 12.0193 30.769 12.1415 31.1723 12.1554C31.5757 12.1694 31.9754 12.0745 32.3295 11.8809C32.6836 11.6872 32.9791 11.4019 33.1851 11.0548C33.391 10.7077 33.4998 10.3116 33.5 9.90796V3.15796C33.5 2.36231 33.1839 1.59925 32.6213 1.03664C32.0587 0.474029 31.2956 0.157959 30.5 0.157959H3.5C2.70435 0.157959 1.94129 0.474029 1.37868 1.03664C0.81607 1.59925 0.5 2.36231 0.5 3.15796V33.158C0.5 33.9536 0.81607 34.7167 1.37868 35.2793C1.94129 35.8419 2.70435 36.158 3.5 36.158H30.5C31.2956 36.158 32.0587 35.8419 32.6213 35.2793C33.1839 34.7167 33.5 33.9536 33.5 33.158V26.408C33.4995 26.0051 33.3908 25.6097 33.1853 25.2632C32.9798 24.9166 32.685 24.6316 32.3317 24.4379C31.9784 24.2443 31.5796 24.149 31.1769 24.1621C30.7742 24.1751 30.3825 24.2961 30.0425 24.5123C28.6831 25.3842 27.5281 25.7142 26.06 25.658H26C24.0109 25.658 22.1032 24.8678 20.6967 23.4613C19.2902 22.0547 18.5 20.1471 18.5 18.158C18.5 16.1688 19.2902 14.2612 20.6967 12.8547C22.1032 11.4481 24.0109 10.658 26 10.658ZM15.5 18.158C15.5034 20.9365 16.6067 23.6007 18.5686 25.5682C20.5305 27.5357 23.1915 28.6466 25.97 28.658C27.5374 28.7357 29.0982 28.4055 30.5 27.6998V33.158H3.5V3.15796H30.5V8.63858C28.8957 7.89405 27.1301 7.56451 25.3653 7.68025C23.6005 7.79599 21.893 8.35328 20.3997 9.30096C18.9065 10.2486 17.6752 11.5563 16.8191 13.1039C15.9629 14.6515 15.5094 16.3894 15.5 18.158Z" fill="#C774F0"/>
</svg>
